<svg width="375" height="40" viewBox="0 0 375 40" fill="none" xmlns="http://www.w3.org/2000/svg">
<path opacity="0.35" d="M337.5 18.9999C337.5 17.8033 338.47 16.8333 339.667 16.8333H356.333C357.53 16.8333 358.5 17.8033 358.5 18.9999V24.9999C358.5 26.1965 357.53 27.1666 356.333 27.1666H339.667C338.47 27.1666 337.5 26.1965 337.5 24.9999V18.9999Z" stroke="black"/>
<path opacity="0.4" d="M360 19.9999V23.9999C360.805 23.6611 361.328 22.873 361.328 21.9999C361.328 21.1268 360.805 20.3387 360 19.9999Z" fill="black"/>
<path d="M339 19.6666C339 18.9302 339.597 18.3333 340.333 18.3333H355.667C356.403 18.3333 357 18.9302 357 19.6666V24.3333C357 25.0696 356.403 25.6666 355.667 25.6666H340.333C339.597 25.6666 339 25.0696 339 24.3333V19.6666Z" fill="black"/>
<path fill-rule="evenodd" clip-rule="evenodd" d="M324.33 18.6079C326.546 18.608 328.677 19.4594 330.283 20.9862C330.404 21.1041 330.598 21.1026 330.717 20.9829L331.873 19.8162C331.933 19.7555 331.967 19.6733 331.966 19.5877C331.966 19.5021 331.931 19.4202 331.87 19.3602C327.655 15.3207 321.005 15.3207 316.79 19.3602C316.729 19.4202 316.694 19.502 316.694 19.5876C316.693 19.6732 316.727 19.7555 316.787 19.8162L317.943 20.9829C318.062 21.1028 318.256 21.1043 318.377 20.9862C319.983 19.4593 322.114 18.6079 324.33 18.6079ZM324.33 22.4036C325.548 22.4035 326.722 22.856 327.624 23.6732C327.746 23.7892 327.939 23.7867 328.058 23.6676L329.212 22.5009C329.273 22.4397 329.307 22.3567 329.306 22.2704C329.305 22.1842 329.27 22.1018 329.208 22.0419C326.459 19.4855 322.203 19.4855 319.455 22.0419C319.393 22.1018 319.358 22.1842 319.357 22.2705C319.356 22.3568 319.39 22.4398 319.451 22.5009L320.605 23.6676C320.724 23.7867 320.917 23.7892 321.039 23.6732C321.94 22.8566 323.114 22.4041 324.33 22.4036ZM326.643 24.9574C326.645 25.0439 326.611 25.1273 326.549 25.1879L324.552 27.2036C324.493 27.2628 324.414 27.2961 324.33 27.2961C324.247 27.2961 324.167 27.2628 324.109 27.2036L322.111 25.1879C322.049 25.1272 322.015 25.0438 322.017 24.9573C322.019 24.8708 322.056 24.7889 322.121 24.7309C323.396 23.652 325.264 23.652 326.54 24.7309C326.604 24.7889 326.642 24.8709 326.643 24.9574Z" fill="black"/>
<path fill-rule="evenodd" clip-rule="evenodd" d="M310.667 16.6665H309.667C309.114 16.6665 308.667 17.1142 308.667 17.6665V26.3332C308.667 26.8855 309.114 27.3332 309.667 27.3332H310.667C311.219 27.3332 311.667 26.8855 311.667 26.3332V17.6665C311.667 17.1142 311.219 16.6665 310.667 16.6665ZM305 18.9998H306C306.552 18.9998 307 19.4476 307 19.9998V26.3332C307 26.8855 306.552 27.3332 306 27.3332H305C304.448 27.3332 304 26.8855 304 26.3332V19.9998C304 19.4476 304.448 18.9998 305 18.9998ZM301.333 21.3332H300.333C299.781 21.3332 299.333 21.7809 299.333 22.3332V26.3332C299.333 26.8855 299.781 27.3332 300.333 27.3332H301.333C301.886 27.3332 302.333 26.8855 302.333 26.3332V22.3332C302.333 21.7809 301.886 21.3332 301.333 21.3332ZM296.667 23.3332H295.667C295.114 23.3332 294.667 23.7809 294.667 24.3332V26.3332C294.667 26.8855 295.114 27.3332 295.667 27.3332H296.667C297.219 27.3332 297.667 26.8855 297.667 26.3332V24.3332C297.667 23.7809 297.219 23.3332 296.667 23.3332Z" fill="black"/>
<path d="M18.3207 27.2563C21.0087 27.2563 22.6053 25.1543 22.6053 21.5947C22.6053 20.2544 22.349 19.1265 21.8583 18.2549C21.1478 16.8999 19.9247 16.1675 18.3793 16.1675C16.0795 16.1675 14.4535 17.7129 14.4535 19.8809C14.4535 21.917 15.9183 23.3965 17.9325 23.3965C19.1703 23.3965 20.1737 22.8179 20.6718 21.8145H20.6937C20.6937 21.8145 20.723 21.8145 20.7303 21.8145C20.745 21.8145 20.7963 21.8145 20.7963 21.8145C20.7963 24.2314 19.8807 25.6743 18.3353 25.6743C17.4271 25.6743 16.724 25.1763 16.4823 24.3779H14.6C14.9149 26.1138 16.3871 27.2563 18.3207 27.2563ZM18.3866 21.895C17.1708 21.895 16.3065 21.0308 16.3065 19.8223C16.3065 18.6431 17.2147 17.7422 18.3939 17.7422C19.5731 17.7422 20.4813 18.6577 20.4813 19.8516C20.4813 21.0308 19.5951 21.895 18.3866 21.895Z" fill="black"/>
<path d="M25.6965 27.1538C26.3923 27.1538 26.8683 26.6558 26.8683 25.9966C26.8683 25.3301 26.3923 24.8394 25.6965 24.8394C25.008 24.8394 24.5246 25.3301 24.5246 25.9966C24.5246 26.6558 25.008 27.1538 25.6965 27.1538ZM25.6965 21.6606C26.3923 21.6606 26.8683 21.1699 26.8683 20.5107C26.8683 19.8442 26.3923 19.3535 25.6965 19.3535C25.008 19.3535 24.5246 19.8442 24.5246 20.5107C24.5246 21.1699 25.008 21.6606 25.6965 21.6606Z" fill="black"/>
<path d="M33.7241 27H35.5332V25.0298H36.9614V23.4331H35.5332V16.4312H32.8672C30.9995 19.2437 29.5127 21.5947 28.5605 23.3452V25.0298H33.7241V27ZM30.311 23.3672C31.5415 21.1992 32.6401 19.4634 33.6509 17.9692H33.7534V23.477H30.311V23.3672Z" fill="black"/>
<path d="M40.99 27H42.8797V16.4312H40.9973L38.2361 18.3647V20.1812L40.8655 18.3354H40.99V27Z" fill="black"/>
</svg>
